<svg version='1.1' baseProfile='full' xmlns='http://www.w3.org/2000/svg' width='888.1367392937639' height='163.0634879349408'><g transform='translate(5, 5)'><g transform='scale(0.9015777610818931) translate(164, -75)'><g><g><polyline points="20,150 27,150 34,150 " style="fill: none; stroke: black;"></polyline></g></g><g><g><polyline points="54,150 61,150 68,150 " style="fill: none; stroke: black;"></polyline></g></g><g><g><polyline points="108,150 115,150 122,150 " style="fill: none; stroke: black;"></polyline></g></g><g><g><polyline points="162,150 169,150 176,150 " style="fill: none; stroke: black;"></polyline></g></g><g><g><polyline points="256,150 263,150 270,150 " style="fill: none; stroke: black;"></polyline></g></g><g><g><polyline points="350,150 357,150 364,150 " style="fill: none; stroke: black;"></polyline></g></g><g><g><polyline points="444,150 451,150 458,150 " style="fill: none; stroke: black;"></polyline></g></g><g><g><polyline points="538,150 545,150 552,150 " style="fill: none; stroke: black;"></polyline></g></g><g><g><polyline points="572,150 579,150 586,150 " style="fill: none; stroke: black;"></polyline></g></g><g><g><polyline points="606,150 613,150 620,150 " style="fill: none; stroke: black;"></polyline></g></g><g><g><polyline points="640,150 647,150 654,150 " style="fill: none; stroke: black;"></polyline></g></g><g><g><polyline points="674,150 681,150 688,150 " style="fill: none; stroke: black;"></polyline></g></g><g><g><polyline points="708,150 715,150 722,150 " style="fill: none; stroke: black;"></polyline></g></g><g><g><polyline points="742,150 749,150 756,150 " style="fill: none; stroke: black;"></polyline></g></g><g><g><polyline points="776,150 783,150 790,150 " style="fill: none; stroke: black;"></polyline></g></g><g></g><g><g transform="translate(0, 75)"><path d="M 0 0 L 20 0 V 150 L 0 150 V 0 z" style="fill: rgb(230, 159, 0); stroke: rgb(179, 124, 0); stroke-width: 4; stroke-linejoin: round;"></path><g></g><text text-anchor="middle" x="10" y="167" font-size="12">16</text></g><g transform="translate(-164, 75)"><rect x="0" y="0" width="150" height="150" style="stroke: lightgrey; stroke-linejoin: round; stroke-width: 2; fill-opacity: 0; stroke-dasharray: 4;"></rect></g></g><g><g transform="translate(34, 75)"><path d="M 0 0 L 20 31.931330472103 V 118.068669527897 L 0 150 V 0 z" style="fill: rgb(86, 180, 233); stroke: rgb(41, 160, 227); stroke-width: 4; stroke-linejoin: round;"></path><g></g><text text-anchor="middle" x="10" y="167" font-size="12">16</text></g></g><g><g transform="translate(68, 75)"><path d="M 0 31.931330472103 L 40 31.931330472103 V 118.068669527897 L 0 118.068669527897 V 31.931330472103 z" style="fill: rgb(230, 159, 0); stroke: rgb(179, 124, 0); stroke-width: 4; stroke-linejoin: round;"></path><g></g><text text-anchor="middle" x="20" y="135.068669527897" font-size="12">32</text></g></g><g><g transform="translate(122, 75)"><path d="M 0 31.931330472103 L 40 47.896995708154506 V 102.1030042918455 L 0 118.068669527897 V 31.931330472103 z" style="fill: rgb(86, 180, 233); stroke: rgb(41, 160, 227); stroke-width: 4; stroke-linejoin: round;"></path><g></g><text text-anchor="middle" x="20" y="135.068669527897" font-size="12">32</text></g></g><g><g transform="translate(176, 75)"><path d="M 0 47.896995708154506 L 80 47.896995708154506 V 102.1030042918455 L 0 102.1030042918455 V 47.896995708154506 z" style="fill: rgb(230, 159, 0); stroke: rgb(179, 124, 0); stroke-width: 4; stroke-linejoin: round;"></path><g></g><text text-anchor="middle" x="40" y="119.1030042918455" font-size="12">64</text></g></g><g><g transform="translate(270, 75)"><path d="M 0 47.896995708154506 L 80 55.87982832618026 V 94.12017167381974 L 0 102.1030042918455 V 47.896995708154506 z" style="fill: rgb(86, 180, 233); stroke: rgb(41, 160, 227); stroke-width: 4; stroke-linejoin: round;"></path><g></g><text text-anchor="middle" x="40" y="119.1030042918455" font-size="12">64</text></g></g><g><g transform="translate(364, 75)"><path d="M 0 55.87982832618026 L 80 55.87982832618026 V 94.12017167381974 L 0 94.12017167381974 V 55.87982832618026 z" style="fill: rgb(230, 159, 0); stroke: rgb(179, 124, 0); stroke-width: 4; stroke-linejoin: round;"></path><g></g><text text-anchor="middle" x="40" y="111.12017167381974" font-size="12">64</text></g></g><g><g transform="translate(458, 75)"><path d="M 0 55.87982832618026 L 80 60 V 90 L 0 94.12017167381974 V 55.87982832618026 z" style="fill: rgb(86, 180, 233); stroke: rgb(41, 160, 227); stroke-width: 4; stroke-linejoin: round;"></path><g></g><text text-anchor="middle" x="40" y="111.12017167381974" font-size="12">64</text></g></g><g><g transform="translate(552, 75)"><path d="M 0 0 L 20 0 V 150 L 0 150 V 0 z" style="fill: rgb(0, 158, 115); stroke: rgb(0, 158, 115); stroke-width: 4; stroke-linejoin: round;"></path><g></g><text text-anchor="middle" x="10" y="167" font-size="12">14400</text></g></g><g><g transform="translate(586, 75)"><path d="M 0 0 L 20 0 V 150 L 0 150 V 0 z" style="fill: rgb(240, 228, 66); stroke: rgb(240, 228, 66); stroke-width: 4; stroke-linejoin: round;"></path><g></g><text text-anchor="middle" x="10" y="167" font-size="12">128</text></g></g><g><g transform="translate(620, 75)"><path d="M 0 0 L 20 0 V 150 L 0 150 V 0 z" style="fill: rgb(0, 114, 178); stroke: rgb(0, 114, 178); stroke-width: 4; stroke-linejoin: round;"></path><g></g><text text-anchor="middle" x="10" y="167" font-size="12">128</text></g></g><g><g transform="translate(654, 75)"><path d="M 0 30.236220472440948 L 20 30.236220472440948 V 119.76377952755905 L 0 119.76377952755905 V 30.236220472440948 z" style="fill: rgb(240, 228, 66); stroke: rgb(240, 228, 66); stroke-width: 4; stroke-linejoin: round;"></path><g></g><text text-anchor="middle" x="10" y="136.76377952755905" font-size="12">64</text></g></g><g><g transform="translate(688, 75)"><path d="M 0 30.236220472440948 L 20 30.236220472440948 V 119.76377952755905 L 0 119.76377952755905 V 30.236220472440948 z" style="fill: rgb(0, 114, 178); stroke: rgb(0, 114, 178); stroke-width: 4; stroke-linejoin: round;"></path><g></g><text text-anchor="middle" x="10" y="136.76377952755905" font-size="12">64</text></g></g><g><g transform="translate(722, 75)"><path d="M 0 56.69291338582677 L 20 56.69291338582677 V 93.30708661417323 L 0 93.30708661417323 V 56.69291338582677 z" style="fill: rgb(240, 228, 66); stroke: rgb(240, 228, 66); stroke-width: 4; stroke-linejoin: round;"></path><g></g><text text-anchor="middle" x="10" y="110.30708661417323" font-size="12">8</text></g></g><g><g transform="translate(756, 75)"><path d="M 0 56.69291338582677 L 20 56.69291338582677 V 93.30708661417323 L 0 93.30708661417323 V 56.69291338582677 z" style="fill: rgb(0, 114, 178); stroke: rgb(0, 114, 178); stroke-width: 4; stroke-linejoin: round;"></path><g></g><text text-anchor="middle" x="10" y="110.30708661417323" font-size="12">8</text></g></g><g><g transform="translate(790, 75)"><path d="M 0 60 L 20 60 V 90 L 0 90 V 60 z" style="fill: rgb(240, 228, 66); stroke: rgb(240, 228, 66); stroke-width: 4; stroke-linejoin: round;"></path><g></g><text text-anchor="middle" x="10" y="107" font-size="12">1</text></g></g></g></g></svg>