<svg version='1.1' baseProfile='full' xmlns='http://www.w3.org/2000/svg' width='889.7090909090907' height='181.08761460485533'><g transform='translate(5, 5)'><g transform='scale(1.4280991735537187) translate(124, -50)'><g><g><polyline points="20,100 32,100 44,100 " style="fill: none; stroke: black;"></polyline></g></g><g><g><polyline points="64,100 76,100 88,100 " style="fill: none; stroke: black;"></polyline></g></g><g><g><polyline points="168,100 180,100 192,100 " style="fill: none; stroke: black;"></polyline></g></g><g><g><polyline points="272,100 284,100 296,100 " style="fill: none; stroke: black;"></polyline></g></g><g><g><polyline points="316,100 328,100 340,100 " style="fill: none; stroke: black;"></polyline></g></g><g><g><polyline points="360,100 372,100 384,100 " style="fill: none; stroke: black;"></polyline></g></g><g><g><polyline points="404,100 416,100 428,100 " style="fill: none; stroke: black;"></polyline></g></g><g><g><polyline points="448,100 460,100 472,100 " style="fill: none; stroke: black;"></polyline></g></g><g></g><g><g transform="translate(0, 50)"><path d="M 0 0 L 20 0 V 100 L 0 100 V 0 z" style="fill: rgb(36, 107, 179); stroke: rgb(27, 82, 137); stroke-width: 4; stroke-linejoin: round;"></path><g></g><text text-anchor="middle" x="10" y="117" font-size="12">16</text></g><g transform="translate(-124, 50)"><rect x="0" y="0" width="100" height="100" style="stroke: lightgrey; stroke-linejoin: round; stroke-width: 2; fill-opacity: 0; stroke-dasharray: 4;"></rect></g></g><g><g transform="translate(44, 50)"><path d="M 0 0 L 20 23.333333333333336 V 76.66666666666666 L 0 100 V 0 z" style="fill: rgb(179, 108, 36); stroke: rgb(137, 82, 27); stroke-width: 4; stroke-linejoin: round;"></path><g></g><text text-anchor="middle" x="10" y="117" font-size="12">16</text></g></g><g><g transform="translate(88, 50)"><path d="M 0 23.333333333333336 L 80 23.333333333333336 V 76.66666666666666 L 0 76.66666666666666 V 23.333333333333336 z" style="fill: rgb(36, 107, 179); stroke: rgb(27, 82, 137); stroke-width: 4; stroke-linejoin: round;"></path><g></g><text text-anchor="middle" x="40" y="93.66666666666666" font-size="12">64</text></g></g><g><g transform="translate(192, 50)"><path d="M 0 23.333333333333336 L 80 35 V 65 L 0 76.66666666666666 V 23.333333333333336 z" style="fill: rgb(179, 108, 36); stroke: rgb(137, 82, 27); stroke-width: 4; stroke-linejoin: round;"></path><g></g><text text-anchor="middle" x="40" y="93.66666666666666" font-size="12">64</text></g></g><g><g transform="translate(296, 50)"><path d="M 0 0 L 20 0 V 100 L 0 100 V 0 z" style="fill: rgb(179, 36, 178); stroke: rgb(179, 36, 178); stroke-width: 4; stroke-linejoin: round;"></path><g></g><text text-anchor="middle" x="10" y="117" font-size="12">246016</text></g></g><g><g transform="translate(340, 50)"><path d="M 0 0 L 20 0 V 100 L 0 100 V 0 z" style="fill: rgb(36, 179, 36); stroke: rgb(36, 179, 36); stroke-width: 4; stroke-linejoin: round;"></path><g></g><text text-anchor="middle" x="10" y="117" font-size="12">128</text></g></g><g><g transform="translate(384, 50)"><path d="M 0 0 L 20 0 V 100 L 0 100 V 0 z" style="fill: rgb(36, 179, 143); stroke: rgb(36, 179, 143); stroke-width: 4; stroke-linejoin: round;"></path><g></g><text text-anchor="middle" x="10" y="117" font-size="12">128</text></g></g><g><g transform="translate(428, 50)"><path d="M 0 0 L 20 0 V 100 L 0 100 V 0 z" style="fill: rgb(36, 179, 143); stroke: rgb(36, 179, 143); stroke-width: 4; stroke-linejoin: round;"></path><g></g><text text-anchor="middle" x="10" y="117" font-size="12">128</text></g></g><g><g transform="translate(472, 50)"><path d="M 0 35 L 20 35 V 65 L 0 65 V 35 z" style="fill: rgb(36, 179, 36); stroke: rgb(36, 179, 36); stroke-width: 4; stroke-linejoin: round;"></path><g></g><text text-anchor="middle" x="10" y="82" font-size="12">1</text></g></g></g></g></svg>